<?xml version="1.0" encoding="UTF-8" standalone="no"?>
<svg xmlns:rdf="http://www.w3.org/1999/02/22-rdf-syntax-ns#"
     xmlns="http://www.w3.org/2000/svg"
     version="1.1"
     xmlns:cc="http://creativecommons.org/ns#"
     xmlns:dc="http://purl.org/dc/elements/1.1/"
     preserveAspectRatio="xMinYMin meet"
     viewBox="0 0 469.26949 815.39177">
 <style>.concept {
    stroke-linejoin:miter;
    font-size:15px;
    fill-opacity:1;
    color:#000000;
    marker-start:none;
    letter-spacing:0px;
    word-spacing:0px;
    stroke:none;
    text-decoration-line:none;
    marker:none;
    stroke-width:0.8769685;
    font-style:normal;
    fill-rule:nonzero;
    block-progression:tb;
    font-stretch:normal;
    stroke-miterlimit:4;
    font-variant:normal;
    font-weight:normal;
    marker-mid:none;
    opacity:1;
    direction:ltr;
    -inkscape-font-specification:sans-serif;
    visibility:visible;
    text-indent:0;
    display:inline;
    writing-mode:lr-tb;
    overflow:visible;
    font-family:sans-serif;
    text-align:start;
    marker-end:none;
    stroke-opacity:1;
    stroke-dashoffset:0;
    text-anchor:start;
    text-decoration:none;
    stroke-linecap:butt;
    stroke-dasharray:none;
    enable-background:accumulate;
    text-transform:none;
    line-height:125%;
}</style>
 <defs>
  <marker id="marker3378" refY="0" refX="0" style="overflow:visible" orient="auto">
   <path style="stroke:#000;stroke-width:1pt;fill-rule:evenodd" transform="matrix(-.4 0 0 -.4 -4 0)" d="m0 0 5-5-17.5 5 17.5 5-5-5z"/>
  </marker>
  <marker id="marker3378-9" refY="0" refX="0" style="overflow:visible" orient="auto">
   <path style="stroke:#000;stroke-width:1pt;fill-rule:evenodd" transform="matrix(-.4 0 0 -.4 -4 0)" d="m0 0 5-5-17.5 5 17.5 5-5-5z"/>
  </marker>
  <marker id="marker3378-6" refY="0" refX="0" style="overflow:visible" orient="auto">
   <path style="stroke:#000;stroke-width:1pt;fill-rule:evenodd" transform="matrix(-.4 0 0 -.4 -4 0)" d="m0 0 5-5-17.5 5 17.5 5-5-5z"/>
  </marker>
  <marker id="marker3378-6-9" refY="0" refX="0" style="overflow:visible" orient="auto">
   <path style="stroke:#000;stroke-width:1pt;fill-rule:evenodd" transform="matrix(-.4 0 0 -.4 -4 0)" d="m0 0 5-5-17.5 5 17.5 5-5-5z"/>
  </marker>
 </defs>
 <g transform="translate(-147.3 -202.64)">
  <rect style="opacity:.48148;fill-rule:evenodd;stroke:#000;stroke-linecap:square;stroke-width:1.8629;fill:#2b3568" transform="matrix(1 0 -.75871 .65143 0 0)" ry="1.2253" width="200.03" y="1347.7" x="1425" height="174.3"/>
  <g transform="matrix(1.0005 0 -.65564 .55760 477.06 170.63)">
   <path style="stroke:#000;fill:none" d="m307.39 585.11v203m20-203v203m20-203v203m20-203v203m20-203v203m20-203v203m20-203v203m20-203v203m20-203v203m20-203v203m20-203v203m-200-203h202m-202 20h202m-202 20h202m-202 20h202m-202 20h202m-202 20h202m-202 20h202m-202 20h202m-202 20h202m-202 20h202m-202 20h202"/>
  </g>
  <g transform="translate(31.315 82.833)">
   <path style="stroke:#000;stroke-width:1px;fill:none" d="m243.45 784.67 132.33-112.13 196.98 2.0203-127.28 112.13z"/>
   <path style="stroke:#000;stroke-width:1px;fill:none" d="m246.44 783.66 321.3-108.08"/>
   <ellipse style="color:#000000" rx="3.2344" ry="3.0558" cy="783.99" cx="244.33"/>
   <ellipse style="color:#000000" rx="3.2344" ry="3.0558" cy="672.73" cx="377.4"/>
   <ellipse style="color:#000000" rx="3.2344" ry="3.0558" cy="675.76" cx="569.33"/>
   <ellipse style="color:#000000" rx="3.2344" ry="3.0558" cy="786.88" cx="445.09"/>
  </g>
  <g transform="translate(7.0711 84.853)">
   <g transform="matrix(1.0005 0 -.65564 .55760 476.09 219.3)">
    <path d="m307.39 585.11v203m20-203v203m20-203v203m20-203v203m20-203v203m20-203v203m20-203v203m20-203v203m20-203v203m20-203v203m20-203v203m-200-203h202m-202 20h202m-202 20h202m-202 20h202m-202 20h202m-202 20h202m-202 20h202m-202 20h202m-202 20h202m-202 20h202m-202 20h202" style="stroke:#000;fill:none"/>
   </g>
   <g transform="translate(23.756 -128.98)">
    <path d="m243.45 784.67 132.33-112.13 196.98 2.0203-127.28 112.13z" style="stroke:#000;stroke-width:1px;fill:none"/>
    <path d="m246.44 783.66 321.3-108.08" style="stroke:#000;stroke-width:1px;fill:none"/>
    <ellipse style="color:#000000" rx="3.2344" ry="3.0558" cy="783.99" cx="244.33"/>
    <ellipse style="color:#000000" rx="3.2344" ry="3.0558" cy="672.73" cx="377.4"/>
    <ellipse style="color:#000000" rx="3.2344" ry="3.0558" cy="675.76" cx="569.33"/>
    <ellipse style="color:#000000" rx="3.2344" ry="3.0558" cy="786.88" cx="445.09"/>
   </g>
  </g>
  <text style="font-size:15px;color:#000000;letter-spacing:0px;word-spacing:0px;text-decoration-line:none;fill:#000000;block-progression:tb;text-indent:0;font-family:sans-serif;text-transform:none;line-height:125%" xml:space="preserve" y="913.97131" x="154.55334" class="concept"><tspan y="913.97131" x="154.55334" style="font-size:15px;font-family:sans-serif;fill:#000000">Canvas</tspan></text>
  <text style="font-size:15px;color:#000000;letter-spacing:0px;word-spacing:0px;text-decoration-line:none;fill:#000000;block-progression:tb;text-indent:0;font-family:sans-serif;text-transform:none;line-height:125%" xml:space="preserve" y="811.94592" x="154.55334" class="concept"><tspan y="811.94592" x="154.55334">Geometry</tspan></text>
  <text style="font-size:15px;color:#000000;letter-spacing:0px;word-spacing:0px;text-decoration-line:none;fill:#000000;block-progression:tb;text-indent:0;font-family:sans-serif;text-transform:none;line-height:125%" xml:space="preserve" y="676.58545" x="154.55334" class="concept"><tspan y="676.58545" x="154.55334">Geometry + fragments</tspan></text>
  <text style="font-size:15px;color:#000000;letter-spacing:0px;word-spacing:0px;text-decoration-line:none;fill:#000000;block-progression:tb;text-indent:0;font-family:sans-serif;text-transform:none;line-height:125%" xml:space="preserve" y="543.2453" x="153.54318" class="concept"><tspan y="543.2453" x="153.54318" style="font-size:15px;font-family:sans-serif;fill:#000000">Input Texture</tspan></text>
  <path d="m456.3 353.42a37.751 30.311 0 0 0 -37.752 30.311 37.751 30.311 0 0 0 0.30203 3.5121 35.148 27.005 0 0 0 -15.922 -2.9602 35.148 27.005 0 0 0 -35.149 27.004 35.148 27.005 0 0 0 15.321 22.296 82.662 22.045 0 0 0 77.756 14.628 82.662 22.045 0 0 0 55.909 -5.8351 35.799 28.658 0 0 0 17.251 -5.9821 82.662 22.045 0 0 0 9.2775 -9.0275 35.799 28.658 0 0 0 4.1303 -13.324 35.799 28.658 0 0 0 -35.799 -28.658 35.799 28.658 0 0 0 -18.266 4.0492 37.751 30.311 0 0 0 0.69217 -5.703 37.751 30.311 0 0 0 -37.752 -30.311z" style="stroke-width:1.0399;color:#000000;stroke:#000;fill:none"/>
  <text style="font-size:15px;color:#000000;letter-spacing:0px;word-spacing:0px;text-decoration-line:none;fill:#494949;block-progression:tb;text-indent:0;font-family:sans-serif;text-transform:none;line-height:125%" xml:space="preserve" y="410.91534" x="154.55334" class="concept"><tspan y="410.91534" x="154.55334" style="font-size:15px;font-family:sans-serif;fill:#000000">Fragment Shader</tspan></text>
  <g transform="matrix(1.0005 0 -.65564 .55760 477.06 -116.26)">
   <path style="stroke:#000;fill:none" d="m307.39 585.11v203m20-203v203m20-203v203m20-203v203m20-203v203m20-203v203m20-203v203m20-203v203m20-203v203m20-203v203m20-203v203m-200-203h202m-202 20h202m-202 20h202m-202 20h202m-202 20h202m-202 20h202m-202 20h202m-202 20h202m-202 20h202m-202 20h202m-202 20h202"/>
  </g>
  <text style="font-size:15px;color:#000000;letter-spacing:0px;word-spacing:0px;text-decoration-line:none;fill:#494949;block-progression:tb;text-indent:0;font-family:sans-serif;text-transform:none;line-height:125%" xml:space="preserve" y="261.41275" x="153.54318" class="concept"><tspan y="261.41275" x="153.54318" style="font-size:15px;font-family:sans-serif;fill:#000000">Output Texture</tspan></text>
  <text style="font-size:15px;color:#000000;letter-spacing:0px;word-spacing:0px;text-decoration-line:none;fill:#000000;block-progression:tb;text-indent:0;font-family:OxygenSans;text-transform:none;line-height:125%" y="410.91531" x="433.35544" xml:space="preserve"><tspan y="410.91531" x="433.35544" style="font-size:17.5px;font-family:&apos;Courier New&apos;;fill:#000000">Code</tspan></text>
  <path d="m454.57 350.31v-77.782" style="marker-end:url(#marker3378);stroke:#000;stroke-width:2;fill:none"/>
  <text style="font-size:15px;color:#000000;letter-spacing:0px;word-spacing:0px;text-decoration-line:none;fill:#494949;block-progression:tb;text-indent:0;font-family:sans-serif;text-transform:none;line-height:125%" xml:space="preserve" y="279.59552" x="175.76654" class="concept"><tspan y="279.59552" x="175.76654" style="font-size:15px;font-family:sans-serif;fill:#000000">(FBO)</tspan></text>
  <path d="m455.58 532.53v-77.782" style="marker-end:url(#marker3378-9);stroke:#000;stroke-width:2;fill:none"/>
  <path style="marker-end:url(#marker3378-6);stroke:#000;stroke-width:1.9625;fill:none" d="m392.93 513.23 48.14-57.371"/>
  <path style="marker-end:url(#marker3378-6-9);stroke:#000;stroke-width:1.9625;fill:none" d="m517.85 513.45-48.14-57.37"/>
  <path d="m269.71 989.73 135.36-113.13" style="marker-end:url(#marker3378);stroke:#000;stroke-width:1.5;fill:none"/>
  <path d="m271.73 991.75h200.01" style="marker-end:url(#marker3378);stroke:#000;stroke-width:1px;fill:none"/>
  <text style="font-size:15px;color:#000000;letter-spacing:0px;word-spacing:0px;text-decoration-line:none;fill:#494949;block-progression:tb;text-indent:0;font-family:sans-serif;text-transform:none;line-height:125%" xml:space="preserve" y="926.09314" x="318.19806" class="concept"><tspan y="926.09314" x="318.19806" style="font-size:15px;font-family:sans-serif;font-weight:bold;font-style:italic">h</tspan></text>
  <text style="font-size:15px;color:#000000;letter-spacing:0px;word-spacing:0px;text-decoration-line:none;fill:#494949;block-progression:tb;text-indent:0;font-family:OxygenSans;text-transform:none;line-height:125%" y="1010.9459" x="372.74631" xml:space="preserve"><tspan y="1010.9459" x="372.74631" style="font-style:italic;font-weight:bold;font-family:sans-serif">w</tspan></text>
 </g>
</svg>
